<?xml version="1.0" encoding="utf-8"?>
<!-- Generator: Adobe Illustrator 23.0.6, SVG Export Plug-In . SVG Version: 6.00 Build 0)  -->
<svg version="1.1" id="Layer_1" xmlns="http://www.w3.org/2000/svg" xmlns:xlink="http://www.w3.org/1999/xlink" x="0px" y="0px"
	 viewBox="0 0 50 50" style="enable-background:new 0 0 50 50;" xml:space="preserve">
<path d="M29.6,25L49,5.6c1.3-1.3,1.3-3.4,0-4.6c-1.3-1.3-3.4-1.3-4.6,0L25,20.4L5.6,1C4.3-0.3,2.2-0.3,1,1c-1.3,1.3-1.3,3.4,0,4.6
	L20.4,25L1,44.4c-1.3,1.3-1.3,3.4,0,4.6c0.6,0.6,1.5,1,2.3,1s1.7-0.3,2.3-1L25,29.6L44.4,49c0.6,0.6,1.5,1,2.3,1
	c0.8,0,1.7-0.3,2.3-1c1.3-1.3,1.3-3.4,0-4.6L29.6,25z"/>
</svg>
