<?xml version="1.0" encoding="utf-8"?>
<!-- Generator: Adobe Illustrator 23.1.1, SVG Export Plug-In . SVG Version: 6.00 Build 0)  -->
<svg version="1.1" id="Capa_1" xmlns="http://www.w3.org/2000/svg" xmlns:xlink="http://www.w3.org/1999/xlink" x="0px" y="0px"
	 viewBox="0 0 100 106.7" style="enable-background:new 0 0 100 106.7;" xml:space="preserve">
<g>
	<g>
		<g>
			<path d="M76.4,48.6c-0.5-1.2-1.7-2-3-2H60V3.3C60,1.5,58.5,0,56.7,0H43.3C41.5,0,40,1.5,40,3.3v43.3H26.7c-1.3,0-2.5,0.8-3,2
				c-0.5,1.2-0.3,2.6,0.5,3.6l23.3,26.7C48.1,79.6,49,80,50,80s1.9-0.4,2.5-1.1l23.3-26.7C76.7,51.2,76.9,49.8,76.4,48.6z"/>
		</g>
	</g>
	<g>
		<g>
			<path d="M86.7,73.3v20H13.3v-20H0V100c0,3.7,3,6.7,6.7,6.7h86.7c3.7,0,6.7-3,6.7-6.7V73.3H86.7z"/>
		</g>
	</g>
</g>
</svg>
