<?xml version="1.0" encoding="utf-8"?>
<!-- Generator: Adobe Illustrator 23.0.6, SVG Export Plug-In . SVG Version: 6.00 Build 0)  -->
<svg version="1.1" id="Layer_1" xmlns="http://www.w3.org/2000/svg" xmlns:xlink="http://www.w3.org/1999/xlink" x="0px" y="0px"
	 viewBox="0 0 50 50" style="enable-background:new 0 0 50 50;" xml:space="preserve">
<style type="text/css">
	.st0{fill:#70D44B;}
</style>
<g>
	<g>
		<path class="st0" d="M32.1,14.9c2.3,0,4.1-1.8,4.1-4.1c0-2.3-1.8-4.1-4.1-4.1c-2.3,0-4.1,1.8-4.1,4.1C28,13.1,29.8,14.9,32.1,14.9
			z"/>
		<path class="st0" d="M17.7,14.9c2.3,0,4.1-1.8,4.1-4.1c0-2.3-1.8-4.1-4.1-4.1c-2.3,0-4.1,1.8-4.1,4.1
			C13.6,13.1,15.5,14.9,17.7,14.9z"/>
		<path class="st0" d="M40.8,38.4c-4.4-3.7-10-5.7-15.7-5.7c-5.8,0-11.4,2-15.7,5.8c-1.1,1-1.3,2.7-0.3,3.8c1,1.1,2.7,1.3,3.8,0.3
			c3.4-2.9,7.8-4.5,12.2-4.5c4.5,0,8.8,1.6,12.2,4.4c1.1,1,2.9,0.8,3.8-0.3C42.1,41.1,41.9,39.4,40.8,38.4z"/>
		<path class="st0" d="M25.1,20.9c-9.2,0-17.8,3.6-24.3,10.1c-1.1,1.1-1.1,2.8,0,3.8c1.1,1.1,2.8,1.1,3.8,0
			c5.5-5.5,12.7-8.5,20.5-8.5c7.6,0,14.8,3,20.3,8.3c1.1,1.1,2.8,1,3.8,0c1.1-1.1,1-2.8,0-3.8C42.7,24.4,34.2,20.9,25.1,20.9z"/>
	</g>
</g>
</svg>
