<svg id="Layer_1" data-name="Layer 1" xmlns="http://www.w3.org/2000/svg" viewBox="0 0 256.89 76.83"><defs><style>.cls-1{fill:none;stroke:#606060;stroke-miterlimit:10;}</style></defs><title>logo-text-simple-white-outline</title><path class="cls-1" d="M93.7,27.15H75.78a1.72,1.72,0,0,0-1.56,1L64.28,49.57l-10-21.42a1.72,1.72,0,0,0-1.56-1H43.14a1.74,1.74,0,0,0-1.56,1L31.65,49.56l-9.86-21.4a1.7,1.7,0,0,0-1.56-1h-18A1.73,1.73,0,0,0,.75,28a1.75,1.75,0,0,0-.06,1.69L24.59,75.4a1.7,1.7,0,0,0,1.53.93H36.64a1.73,1.73,0,0,0,1.56-1L48,53.74l9.75,21.58a1.75,1.75,0,0,0,1.57,1H69.81a1.7,1.7,0,0,0,1.52-.93L95.22,29.67a1.72,1.72,0,0,0-1.52-2.52Z"/><rect class="cls-1" x="104.01" y="27.15" width="19.67" height="49.18" rx="1.72"/><path class="cls-1" d="M113.84.5a10.82,10.82,0,1,0,10.82,10.81A10.82,10.82,0,0,0,113.84.5Z"/><path class="cls-1" d="M225.15,27.15H207.23a1.69,1.69,0,0,0-1.55,1l-10,21.42-9.94-21.42a1.71,1.71,0,0,0-1.55-1h-9.63a1.72,1.72,0,0,0-1.57,1l-9.95,21.41-9.84-21.4a1.73,1.73,0,0,0-1.57-1h-18a1.72,1.72,0,0,0-1.52,2.52L156,75.4a1.7,1.7,0,0,0,1.52.93h10.53a1.72,1.72,0,0,0,1.56-1l9.76-21.58,9.76,21.58a1.73,1.73,0,0,0,1.57,1h10.52a1.7,1.7,0,0,0,1.52-.93l23.9-45.73a1.73,1.73,0,0,0-1.53-2.52Z"/><rect class="cls-1" x="235.74" y="27.15" width="19.67" height="49.18" rx="1.72"/><path class="cls-1" d="M245.57,22.13a10.82,10.82,0,1,0-10.81-10.82A10.83,10.83,0,0,0,245.57,22.13Z"/></svg>