<?xml version="1.0" encoding="utf-8"?>
<!-- Generator: Adobe Illustrator 23.1.1, SVG Export Plug-In . SVG Version: 6.00 Build 0)  -->
<svg version="1.1" id="Layer_1" xmlns="http://www.w3.org/2000/svg" xmlns:xlink="http://www.w3.org/1999/xlink" x="0px" y="0px"
	 viewBox="0 0 104.6 26.7" style="enable-background:new 0 0 104.6 26.7;" xml:space="preserve">
<style type="text/css">
	.st0{fill:#FFFFFF;}
</style>
<path class="st0" d="M63.7,6.7h-4.5c-0.2,0-0.3,0.1-0.4,0.3l-2.5,5.4L53.8,7c-0.1-0.2-0.2-0.3-0.4-0.3H51c-0.2,0-0.3,0.1-0.4,0.3
	l-2.5,5.4L45.6,7c-0.1-0.2-0.2-0.3-0.4-0.3h-4.5c-0.2,0-0.3,0.1-0.4,0.2c-0.1,0.1-0.1,0.3,0,0.4l6,11.5c0.1,0.1,0.2,0.2,0.4,0.2h2.6
	c0.2,0,0.3-0.1,0.4-0.3l2.5-5.4l2.5,5.4c0.1,0.2,0.2,0.3,0.4,0.3h2.6c0.2,0,0.3-0.1,0.4-0.2l6-11.5c0.1-0.1,0.1-0.3,0-0.4
	C64,6.8,63.9,6.7,63.7,6.7z"/>
<path class="st0" d="M70.8,6.7h-4.1c-0.2,0-0.4,0.2-0.4,0.4v11.5c0,0.2,0.2,0.4,0.4,0.4h4.1c0.2,0,0.4-0.2,0.4-0.4V7.1
	C71.3,6.9,71.1,6.7,70.8,6.7z"/>
<path class="st0" d="M68.8,0c-1.5,0-2.7,1.2-2.7,2.7s1.2,2.7,2.7,2.7s2.7-1.2,2.7-2.7S70.3,0,68.8,0z"/>
<path class="st0" d="M96.8,6.7h-4.5c-0.2,0-0.3,0.1-0.4,0.3l-2.5,5.4L86.9,7c-0.1-0.2-0.2-0.3-0.4-0.3h-2.4c-0.2,0-0.3,0.1-0.4,0.3
	l-2.5,5.4L78.7,7c-0.1-0.2-0.2-0.3-0.4-0.3h-4.5c-0.2,0-0.3,0.1-0.4,0.2s-0.1,0.3,0,0.4l6,11.5c0.1,0.1,0.2,0.2,0.4,0.2h2.6
	c0.2,0,0.3-0.1,0.4-0.3l2.5-5.4l2.5,5.4c0.1,0.2,0.2,0.3,0.4,0.3h2.6c0.2,0,0.3-0.1,0.4-0.2l6-11.5c0.1-0.1,0.1-0.3,0-0.4
	C97.1,6.8,96.9,6.7,96.8,6.7z"/>
<path class="st0" d="M103.9,6.7h-4.1c-0.2,0-0.4,0.2-0.4,0.4v11.5c0,0.2,0.2,0.4,0.4,0.4h4.1c0.2,0,0.4-0.2,0.4-0.4V7.1
	C104.4,6.9,104.2,6.7,103.9,6.7z"/>
<path class="st0" d="M101.9,5.4c1.5,0,2.7-1.2,2.7-2.7S103.4,0,101.9,0s-2.7,1.2-2.7,2.7C99.2,4.2,100.4,5.4,101.9,5.4z"/>
<path class="st0" d="M44.7,22.9h0.6v-0.5l1-0.3v0.8h1v0.8h-1V25c0,0.3,0,0.5,0.1,0.6s0.2,0.2,0.3,0.2s0.2,0,0.3,0s0.2,0,0.2-0.1
	l0.2,0.7c-0.1,0.1-0.3,0.1-0.5,0.2c-0.2,0-0.4,0.1-0.6,0.1c-0.4,0-0.6-0.1-0.8-0.3c-0.2-0.2-0.3-0.5-0.3-0.9v-1.8h-0.6L44.7,22.9
	L44.7,22.9z"/>
<path class="st0" d="M47.8,24.8c0-0.6,0.2-1.1,0.5-1.4s0.8-0.5,1.4-0.5c0.3,0,0.6,0,0.8,0.1s0.4,0.2,0.6,0.4
	c0.2,0.2,0.3,0.4,0.3,0.6c0.1,0.2,0.1,0.5,0.1,0.8s0,0.6-0.1,0.8c-0.1,0.2-0.2,0.4-0.4,0.6s-0.4,0.3-0.6,0.4
	c-0.2,0.1-0.5,0.1-0.8,0.1s-0.6,0-0.8-0.1s-0.4-0.2-0.6-0.4c-0.2-0.2-0.3-0.4-0.3-0.6C47.8,25.3,47.8,25.1,47.8,24.8z M48.8,24.8
	c0,0.2,0,0.3,0,0.4s0.1,0.3,0.2,0.4c0.1,0.1,0.2,0.2,0.3,0.2c0.1,0.1,0.2,0.1,0.4,0.1c0.6,0,0.9-0.4,0.9-1.1c0-0.2,0-0.3,0-0.5
	c0-0.1-0.1-0.3-0.1-0.4c-0.1-0.1-0.2-0.2-0.3-0.2s-0.2-0.1-0.4-0.1c-0.3,0-0.5,0.1-0.6,0.3C48.8,24.1,48.8,24.4,48.8,24.8z"/>
<path class="st0" d="M55.6,25.3c0,0.2,0,0.4,0,0.6s0,0.4,0.1,0.7H55l-0.1-0.5h-0.1c-0.1,0.2-0.3,0.3-0.5,0.4s-0.4,0.2-0.7,0.2
	c-0.5,0-0.9-0.2-1.1-0.5c-0.3-0.3-0.4-0.8-0.4-1.4c0-0.3,0-0.6,0.1-0.8c0.1-0.2,0.2-0.5,0.3-0.6c0.2-0.2,0.3-0.3,0.6-0.4
	c0.2-0.1,0.5-0.1,0.8-0.1c0.2,0,0.3,0,0.4,0s0.2,0.1,0.4,0.1v-1.3h1v3.6C55.7,25.3,55.6,25.3,55.6,25.3z M53.9,25.9
	c0.2,0,0.4-0.1,0.5-0.2s0.2-0.2,0.3-0.4v-1.5c-0.1-0.1-0.2-0.1-0.3-0.1s-0.2,0-0.4,0c-0.3,0-0.5,0.1-0.7,0.3
	c-0.2,0.2-0.2,0.5-0.2,0.9c0,0.3,0.1,0.6,0.2,0.7C53.4,25.8,53.6,25.9,53.9,25.9z"/>
<path class="st0" d="M56.5,24.8c0-0.6,0.2-1.1,0.5-1.4s0.8-0.5,1.4-0.5c0.3,0,0.6,0,0.8,0.1s0.4,0.2,0.6,0.4
	c0.2,0.2,0.3,0.4,0.3,0.6c0.1,0.2,0.1,0.5,0.1,0.8s0,0.6-0.1,0.8c-0.1,0.2-0.2,0.4-0.4,0.6s-0.4,0.3-0.6,0.4
	c-0.2,0.1-0.5,0.1-0.8,0.1s-0.6,0-0.8-0.1s-0.4-0.2-0.6-0.4c-0.2-0.2-0.3-0.4-0.3-0.6C56.5,25.3,56.5,25.1,56.5,24.8z M57.5,24.8
	c0,0.2,0,0.3,0,0.4s0.1,0.3,0.2,0.4c0.1,0.1,0.2,0.2,0.3,0.2c0.1,0.1,0.2,0.1,0.4,0.1c0.6,0,0.9-0.4,0.9-1.1c0-0.2,0-0.3,0-0.5
	c0-0.1-0.1-0.3-0.1-0.4c-0.1-0.1-0.2-0.2-0.3-0.2c-0.1-0.1-0.2-0.1-0.4-0.1c-0.3,0-0.5,0.1-0.6,0.3C57.6,24.1,57.5,24.4,57.5,24.8z"
	/>
<path class="st0" d="M61,25.7c0.1,0,0.1,0.1,0.2,0.1c0.1,0,0.2,0.1,0.3,0.1s0.2,0.1,0.3,0.1s0.2,0,0.3,0c0.2,0,0.3,0,0.4-0.1
	c0.1-0.1,0.1-0.1,0.1-0.3c0-0.1-0.1-0.2-0.2-0.2c-0.1-0.1-0.3-0.1-0.4-0.2c-0.1,0-0.3-0.1-0.4-0.1c-0.1-0.1-0.3-0.1-0.4-0.2
	c-0.1-0.1-0.2-0.2-0.3-0.3c-0.1-0.1-0.1-0.3-0.1-0.5c0-0.4,0.1-0.7,0.3-0.8c0.2-0.2,0.6-0.3,1-0.3c0.3,0,0.5,0,0.8,0.1
	c0.2,0,0.4,0.1,0.6,0.2L63.3,24c-0.1,0-0.3-0.1-0.5-0.1s-0.4-0.1-0.6-0.1c-0.2,0-0.3,0-0.4,0.1c-0.1,0-0.1,0.1-0.1,0.3
	c0,0.1,0.1,0.2,0.2,0.2c0.1,0.1,0.3,0.1,0.5,0.2c0.1,0,0.3,0.1,0.4,0.1c0.1,0,0.3,0.1,0.4,0.2c0.1,0.1,0.2,0.2,0.3,0.3
	c0.1,0.1,0.1,0.3,0.1,0.5c0,0.4-0.1,0.7-0.4,0.9c-0.3,0.2-0.6,0.3-1.1,0.3c-0.3,0-0.5,0-0.8-0.1c-0.2,0-0.4-0.1-0.6-0.2L61,25.7z"/>
<path class="st0" d="M69.1,26.4c-0.2,0.1-0.3,0.2-0.6,0.2c-0.2,0.1-0.5,0.1-0.7,0.1c-0.3,0-0.6,0-0.8-0.1c-0.2-0.1-0.4-0.2-0.5-0.4
	c-0.1-0.2-0.2-0.4-0.3-0.6c-0.1-0.2-0.1-0.5-0.1-0.8c0-0.6,0.2-1.1,0.5-1.4s0.7-0.5,1.3-0.5c0.3,0,0.5,0,0.7,0.1
	c0.2,0,0.3,0.1,0.5,0.2L68.9,24c-0.1-0.1-0.2-0.1-0.4-0.1c-0.1,0-0.3,0-0.4,0c-0.3,0-0.5,0.1-0.7,0.3c-0.2,0.2-0.2,0.4-0.2,0.8
	c0,0.1,0,0.3,0.1,0.4c0,0.1,0.1,0.2,0.2,0.3c0.1,0.1,0.2,0.2,0.3,0.2c0.1,0.1,0.3,0.1,0.4,0.1c0.2,0,0.4,0,0.5-0.1
	c0.1,0,0.2-0.1,0.3-0.1L69.1,26.4z"/>
<path class="st0" d="M69.5,24.8c0-0.6,0.2-1.1,0.5-1.4s0.8-0.5,1.4-0.5c0.3,0,0.6,0,0.8,0.1c0.2,0.1,0.4,0.2,0.6,0.4
	c0.2,0.2,0.3,0.4,0.3,0.6c0.1,0.2,0.1,0.5,0.1,0.8s0,0.6-0.1,0.8c-0.1,0.2-0.2,0.4-0.4,0.6c-0.2,0.2-0.4,0.3-0.6,0.4
	s-0.5,0.1-0.8,0.1s-0.6,0-0.8-0.1c-0.2-0.1-0.4-0.2-0.6-0.4c-0.2-0.2-0.3-0.4-0.3-0.6C69.5,25.3,69.5,25.1,69.5,24.8z M70.5,24.8
	c0,0.2,0,0.3,0,0.4s0.1,0.3,0.2,0.4s0.2,0.2,0.3,0.2c0.1,0.1,0.2,0.1,0.4,0.1c0.6,0,0.9-0.4,0.9-1.1c0-0.2,0-0.3,0-0.5
	c0-0.1-0.1-0.3-0.1-0.4c-0.1-0.1-0.2-0.2-0.3-0.2s-0.2-0.1-0.4-0.1c-0.3,0-0.5,0.1-0.6,0.3C70.6,24.1,70.5,24.4,70.5,24.8z"/>
<path class="st0" d="M76.5,26.6v-2c0-0.3,0-0.5-0.1-0.7c-0.1-0.1-0.3-0.2-0.5-0.2s-0.4,0.1-0.5,0.2s-0.2,0.3-0.3,0.4
	c0,0.4,0,0.8,0,1.2c0,0.4,0,0.8,0,1.2h-1V23h0.8l0.1,0.5l0,0c0.1-0.2,0.3-0.3,0.5-0.4s0.5-0.2,0.8-0.2c0.2,0,0.4,0,0.5,0.1
	c0.2,0,0.3,0.1,0.4,0.3c0.1,0.1,0.2,0.3,0.2,0.5c0.1,0.2,0.1,0.5,0.1,0.8v2.2h-1V26.6z"/>
<path class="st0" d="M81.6,26.3c-0.2,0.1-0.4,0.2-0.6,0.3s-0.6,0.1-0.9,0.1c-0.6,0-1.1-0.2-1.4-0.5s-0.4-0.8-0.4-1.4
	s0.2-1.1,0.5-1.5s0.8-0.5,1.4-0.5c0.2,0,0.4,0,0.6,0.1c0.2,0,0.4,0.1,0.5,0.2s0.3,0.3,0.4,0.5s0.1,0.4,0.1,0.7c0,0.1,0,0.2,0,0.3
	c0,0.1,0,0.2-0.1,0.4h-2.5c0,0.3,0.1,0.6,0.3,0.7c0.2,0.2,0.4,0.2,0.8,0.2c0.2,0,0.4,0,0.6-0.1s0.3-0.1,0.4-0.2L81.6,26.3z
	 M80.2,23.6c-0.3,0-0.5,0.1-0.6,0.2c-0.1,0.2-0.2,0.4-0.2,0.6H81c0-0.3,0-0.5-0.1-0.6C80.6,23.7,80.4,23.6,80.2,23.6z"/>
<path class="st0" d="M85.4,26.4c-0.2,0.1-0.3,0.2-0.6,0.2c-0.2,0.1-0.5,0.1-0.7,0.1c-0.3,0-0.6,0-0.8-0.1c-0.2-0.1-0.4-0.2-0.5-0.4
	c-0.1-0.2-0.2-0.4-0.3-0.6c-0.1-0.2-0.1-0.5-0.1-0.8c0-0.6,0.2-1.1,0.5-1.4s0.7-0.5,1.3-0.5c0.3,0,0.5,0,0.7,0.1
	c0.2,0,0.3,0.1,0.5,0.2L85.2,24c-0.1-0.1-0.2-0.1-0.4-0.1c-0.1,0-0.3,0-0.4,0c-0.3,0-0.5,0.1-0.7,0.3c-0.2,0.2-0.2,0.4-0.2,0.8
	c0,0.1,0,0.3,0.1,0.4c0,0.1,0.1,0.2,0.2,0.3c0.1,0.1,0.2,0.2,0.3,0.2c0.1,0.1,0.3,0.1,0.4,0.1c0.2,0,0.4,0,0.5-0.1
	c0.1,0,0.2-0.1,0.3-0.1L85.4,26.4z"/>
<path class="st0" d="M85.7,22.9h0.6v-0.5l1-0.3v0.8h1v0.8h-1V25c0,0.3,0,0.5,0.1,0.6s0.2,0.2,0.3,0.2c0.1,0,0.2,0,0.3,0
	c0.1,0,0.2,0,0.2-0.1l0.2,0.7c-0.1,0.1-0.3,0.1-0.5,0.2c-0.2,0-0.4,0.1-0.6,0.1c-0.4,0-0.6-0.1-0.8-0.3c-0.2-0.2-0.3-0.5-0.3-0.9
	v-1.8h-0.6v-0.8C85.6,22.9,85.7,22.9,85.7,22.9z"/>
<path class="st0" d="M88.9,23.2c0.2-0.1,0.5-0.2,0.8-0.2c0.3-0.1,0.6-0.1,1-0.1c0.3,0,0.5,0,0.6,0.1c0.2,0.1,0.3,0.1,0.4,0.3
	c0.1,0.1,0.2,0.3,0.2,0.4c0,0.2,0.1,0.3,0.1,0.5s0,0.5,0,0.7s0,0.5,0,0.7s0,0.4,0,0.5c0,0.2,0.1,0.3,0.1,0.5h-0.8l-0.2-0.5H91
	c-0.1,0.2-0.3,0.3-0.5,0.4s-0.4,0.2-0.7,0.2c-0.2,0-0.3,0-0.5-0.1c-0.1-0.1-0.3-0.1-0.4-0.2s-0.2-0.2-0.2-0.3
	c-0.1-0.1-0.1-0.3-0.1-0.4c0-0.4,0.1-0.7,0.4-0.9c0.3-0.2,0.7-0.3,1.3-0.3c0.1,0,0.3,0,0.4,0s0.2,0,0.3,0c0-0.1,0-0.2,0-0.3
	c0-0.2,0-0.3-0.1-0.4s-0.3-0.1-0.5-0.1s-0.4,0-0.7,0.1c-0.2,0.1-0.4,0.1-0.6,0.2L88.9,23.2z M90.2,25.9c0.2,0,0.4-0.1,0.5-0.2
	s0.2-0.2,0.3-0.3V25h-0.1c0,0-0.1,0-0.2,0s-0.1,0-0.2,0s-0.1,0-0.2,0c-0.3,0-0.4,0-0.6,0.1c-0.1,0.1-0.2,0.2-0.2,0.3
	c0,0.2,0,0.3,0.1,0.4C89.9,25.8,90,25.9,90.2,25.9z"/>
<path class="st0" d="M96.4,25.3c0,0.2,0,0.4,0,0.6s0,0.4,0.1,0.7h-0.7l-0.1-0.5h-0.1c-0.1,0.2-0.3,0.3-0.5,0.4s-0.4,0.2-0.7,0.2
	c-0.5,0-0.9-0.2-1.1-0.5c-0.3-0.3-0.4-0.8-0.4-1.4c0-0.3,0-0.6,0.1-0.8c0.1-0.2,0.2-0.5,0.3-0.6c0.2-0.2,0.3-0.3,0.6-0.4
	c0.2-0.1,0.5-0.1,0.8-0.1c0.2,0,0.3,0,0.4,0s0.2,0.1,0.4,0.1v-1.3h1v3.6C96.5,25.3,96.4,25.3,96.4,25.3z M94.6,25.9
	c0.2,0,0.4-0.1,0.5-0.2s0.2-0.2,0.3-0.4v-1.5c-0.1-0.1-0.2-0.1-0.3-0.1c-0.1,0-0.2,0-0.4,0c-0.3,0-0.5,0.1-0.7,0.3
	c-0.2,0.2-0.2,0.5-0.2,0.9c0,0.3,0.1,0.6,0.2,0.7C94.1,25.8,94.3,25.9,94.6,25.9z"/>
<path class="st0" d="M97.2,24.8c0-0.6,0.2-1.1,0.5-1.4s0.8-0.5,1.4-0.5c0.3,0,0.6,0,0.8,0.1s0.4,0.2,0.6,0.4
	c0.2,0.2,0.3,0.4,0.3,0.6c0.1,0.2,0.1,0.5,0.1,0.8s0,0.6-0.1,0.8c-0.1,0.2-0.2,0.4-0.4,0.6c-0.2,0.2-0.4,0.3-0.6,0.4
	s-0.5,0.1-0.8,0.1s-0.6,0-0.8-0.1c-0.2-0.1-0.4-0.2-0.6-0.4c-0.2-0.2-0.3-0.4-0.3-0.6C97.3,25.3,97.2,25.1,97.2,24.8z M98.2,24.8
	c0,0.2,0,0.3,0,0.4s0.1,0.3,0.2,0.4s0.2,0.2,0.3,0.2c0.1,0.1,0.2,0.1,0.4,0.1c0.6,0,0.9-0.4,0.9-1.1c0-0.2,0-0.3,0-0.5
	c0-0.1-0.1-0.3-0.1-0.4c-0.1-0.1-0.2-0.2-0.3-0.2c-0.1-0.1-0.2-0.1-0.4-0.1c-0.3,0-0.5,0.1-0.6,0.3C98.3,24.1,98.2,24.4,98.2,24.8z"
	/>
<path class="st0" d="M101.7,25.7c0.1,0,0.1,0.1,0.2,0.1s0.2,0.1,0.3,0.1c0.1,0,0.2,0.1,0.3,0.1c0.1,0,0.2,0,0.3,0
	c0.2,0,0.3,0,0.4-0.1s0.1-0.1,0.1-0.3c0-0.1-0.1-0.2-0.2-0.2c-0.1-0.1-0.3-0.1-0.4-0.2c-0.1,0-0.3-0.1-0.4-0.1
	c-0.1-0.1-0.3-0.1-0.4-0.2s-0.2-0.2-0.3-0.3c-0.1-0.1-0.1-0.3-0.1-0.5c0-0.4,0.1-0.7,0.3-0.8c0.2-0.2,0.6-0.3,1-0.3
	c0.3,0,0.5,0,0.8,0.1c0.2,0,0.4,0.1,0.6,0.2L104,24c-0.1,0-0.3-0.1-0.5-0.1s-0.4-0.1-0.6-0.1s-0.3,0-0.4,0.1c-0.1,0-0.1,0.1-0.1,0.3
	c0,0.1,0.1,0.2,0.2,0.2c0.1,0.1,0.3,0.1,0.5,0.2c0.1,0,0.3,0.1,0.4,0.1s0.3,0.1,0.4,0.2s0.2,0.2,0.3,0.3c0.1,0.1,0.1,0.3,0.1,0.5
	c0,0.4-0.1,0.7-0.4,0.9c-0.3,0.2-0.6,0.3-1.1,0.3c-0.3,0-0.5,0-0.8-0.1s-0.4-0.1-0.6-0.2L101.7,25.7z"/>
<path class="st0" d="M20.2,6.9c1.2,0,2.2-1,2.2-2.2s-1-2.2-2.2-2.2S18,3.5,18,4.7S19,6.9,20.2,6.9z"/>
<path class="st0" d="M12.5,6.9c1.2,0,2.2-1,2.2-2.2s-1-2.2-2.2-2.2s-2.2,1-2.2,2.2S11.3,6.9,12.5,6.9z"/>
<path class="st0" d="M6,12.7c2.9,2.4,6.5,3.7,10.3,3.7s7.4-1.3,10.3-3.8c0.7-0.6,0.8-1.8,0.2-2.5c-0.6-0.8-1.8-0.8-2.5-0.2
	c-2.2,1.9-5.1,2.9-8,2.9s-5.8-1-8-2.9c-0.8-0.6-1.9-0.5-2.5,0.2C5.2,11,5.3,12.1,6,12.7z"/>
<path class="st0" d="M16.3,24.2c6,0,11.7-2.3,15.9-6.6c0.7-0.7,0.7-1.8,0-2.5s-1.8-0.7-2.5,0c-3.6,3.6-8.3,5.5-13.4,5.5
	c-5,0-9.7-1.9-13.3-5.4c-0.7-0.7-1.8-0.7-2.5,0s-0.7,1.8,0,2.5C4.8,21.9,10.4,24.2,16.3,24.2z"/>
</svg>
