<?xml version="1.0" encoding="utf-8"?>
<!-- Generator: Adobe Illustrator 23.0.6, SVG Export Plug-In . SVG Version: 6.00 Build 0)  -->
<svg version="1.1" id="Layer_1" xmlns="http://www.w3.org/2000/svg" xmlns:xlink="http://www.w3.org/1999/xlink" x="0px" y="0px"
	 viewBox="0 0 32.8 19.5" style="enable-background:new 0 0 32.8 19.5;" xml:space="preserve">
<style type="text/css">
	.st0{fill:#E4E4E4;}
</style>
<g>
	<path class="st0" d="M20.2,2.2c1.2,0,2.2-1,2.2-2.2H18C18,1.2,19,2.2,20.2,2.2z"/>
	<path class="st0" d="M12.5,2.2c1.2,0,2.2-1,2.2-2.2h-4.4C10.3,1.2,11.3,2.2,12.5,2.2z"/>
	<path class="st0" d="M26.6,7.9c0.7-0.6,0.8-1.8,0.2-2.5c-0.6-0.8-1.8-0.8-2.5-0.2c-2.2,1.9-5.1,2.9-8,2.9c-2.9,0-5.8-1-8-2.9
		C7.5,4.6,6.4,4.7,5.8,5.4C5.2,6.3,5.3,7.4,6,8c2.9,2.4,6.5,3.7,10.3,3.7S23.7,10.4,26.6,7.9z"/>
	<path class="st0" d="M29.7,10.4c-3.6,3.6-8.3,5.5-13.4,5.5c-5,0-9.7-1.9-13.3-5.4c-0.7-0.7-1.8-0.7-2.5,0s-0.7,1.8,0,2.5
		c4.3,4.2,9.9,6.5,15.8,6.5c6,0,11.7-2.3,15.9-6.6c0.7-0.7,0.7-1.8,0-2.5C31.5,9.7,30.4,9.7,29.7,10.4z"/>
</g>
</svg>
