<?xml version="1.0" encoding="utf-8"?>
<!-- Generator: Adobe Illustrator 23.0.6, SVG Export Plug-In . SVG Version: 6.00 Build 0)  -->
<svg version="1.1" id="Layer_1" xmlns="http://www.w3.org/2000/svg" xmlns:xlink="http://www.w3.org/1999/xlink" x="0px" y="0px"
	 viewBox="0 0 32.8 21.7" style="enable-background:new 0 0 32.8 21.7;" xml:space="preserve">
<style type="text/css">
	.st0{fill:#FFFFFF;}
</style>
<g>
	<path class="st0" d="M20.2,4.4c1.2,0,2.2-1,2.2-2.2S21.4,0,20.2,0S18,1,18,2.2S19,4.4,20.2,4.4z"/>
	<path class="st0" d="M12.5,4.4c1.2,0,2.2-1,2.2-2.2S13.7,0,12.5,0s-2.2,1-2.2,2.2S11.3,4.4,12.5,4.4z"/>
	<path class="st0" d="M6,10.2c2.9,2.4,6.5,3.7,10.3,3.7s7.4-1.3,10.3-3.8c0.7-0.6,0.8-1.8,0.2-2.5c-0.6-0.8-1.8-0.8-2.5-0.2
		c-2.2,1.9-5.1,2.9-8,2.9s-5.8-1-8-2.9C7.5,6.8,6.4,6.9,5.8,7.6C5.2,8.5,5.3,9.6,6,10.2z"/>
	<path class="st0" d="M16.3,21.7c6,0,11.7-2.3,15.9-6.6c0.7-0.7,0.7-1.8,0-2.5s-1.8-0.7-2.5,0c-3.6,3.6-8.3,5.5-13.4,5.5
		c-5,0-9.7-1.9-13.3-5.4c-0.7-0.7-1.8-0.7-2.5,0s-0.7,1.8,0,2.5C4.8,19.4,10.4,21.7,16.3,21.7z"/>
</g>
</svg>
