<?xml version="1.0" encoding="utf-8"?>
<!-- Generator: Adobe Illustrator 23.0.6, SVG Export Plug-In . SVG Version: 6.00 Build 0)  -->
<svg version="1.1" id="Layer_1" xmlns="http://www.w3.org/2000/svg" xmlns:xlink="http://www.w3.org/1999/xlink" x="0px" y="0px"
	 viewBox="0 0 64.4 26.9" style="enable-background:new 0 0 64.4 26.9;" xml:space="preserve">
<style type="text/css">
	.st0{fill:#80DF7E;}
</style>
<g>
	<path class="st0" d="M23.5,6.7H19c-0.2,0-0.3,0.1-0.4,0.3l-2.5,5.4L13.6,7c-0.1-0.2-0.2-0.3-0.4-0.3h-2.4c-0.2,0-0.3,0.1-0.4,0.3
		l-2.5,5.4L5.4,7C5.3,6.8,5.2,6.7,5,6.7H0.5c-0.2,0-0.3,0.1-0.4,0.2C0,7,0,7.2,0.1,7.3l6,11.5C6.2,18.9,6.3,19,6.5,19h2.6
		c0.2,0,0.3-0.1,0.4-0.3l2.5-5.4l2.5,5.4c0.1,0.2,0.2,0.3,0.4,0.3h2.6c0.2,0,0.3-0.1,0.4-0.2l6-11.5C24,7.2,24,7,23.9,6.9
		C23.8,6.8,23.7,6.7,23.5,6.7z"/>
	<path class="st0" d="M30.6,6.7h-4.1c-0.2,0-0.4,0.2-0.4,0.4v11.5c0,0.2,0.2,0.4,0.4,0.4h4.1c0.2,0,0.4-0.2,0.4-0.4V7.1
		C31.1,6.9,30.9,6.7,30.6,6.7z"/>
	<path class="st0" d="M28.6,0c-1.5,0-2.7,1.2-2.7,2.7s1.2,2.7,2.7,2.7s2.7-1.2,2.7-2.7S30.1,0,28.6,0z"/>
	<path class="st0" d="M56.6,6.7h-4.5c-0.2,0-0.3,0.1-0.4,0.3l-2.5,5.4L46.7,7c-0.1-0.2-0.2-0.3-0.4-0.3h-2.4c-0.2,0-0.3,0.1-0.4,0.3
		L41,12.4L38.5,7c-0.1-0.2-0.2-0.3-0.4-0.3h-4.5c-0.2,0-0.3,0.1-0.4,0.2s-0.1,0.3,0,0.4l6,11.5c0.1,0.1,0.2,0.2,0.4,0.2h2.6
		c0.2,0,0.3-0.1,0.4-0.3l2.5-5.4l2.5,5.4c0.1,0.2,0.2,0.3,0.4,0.3h2.6c0.2,0,0.3-0.1,0.4-0.2l6-11.5c0.1-0.1,0.1-0.3,0-0.4
		C56.9,6.8,56.7,6.7,56.6,6.7z"/>
	<path class="st0" d="M63.7,6.7h-4.1c-0.2,0-0.4,0.2-0.4,0.4v11.5c0,0.2,0.2,0.4,0.4,0.4h4.1c0.2,0,0.4-0.2,0.4-0.4V7.1
		C64.2,6.9,64,6.7,63.7,6.7z"/>
	<path class="st0" d="M61.7,5.4c1.5,0,2.7-1.2,2.7-2.7S63.2,0,61.7,0S59,1.2,59,2.7C59,4.2,60.2,5.4,61.7,5.4z"/>
	<path class="st0" d="M4.5,22.9h0.6v-0.5l1-0.3v0.8h1v0.8h-1V25c0,0.3,0,0.5,0.1,0.6s0.2,0.2,0.3,0.2s0.2,0,0.3,0s0.2,0,0.2-0.1
		l0.2,0.7c-0.1,0.1-0.3,0.1-0.5,0.2c-0.2,0-0.4,0.1-0.6,0.1c-0.4,0-0.6-0.1-0.8-0.3C5.1,26.2,5,25.9,5,25.5v-1.8H4.4L4.5,22.9
		L4.5,22.9z"/>
	<path class="st0" d="M7.6,24.8c0-0.6,0.2-1.1,0.5-1.4s0.8-0.5,1.4-0.5c0.3,0,0.6,0,0.8,0.1s0.4,0.2,0.6,0.4
		c0.2,0.2,0.3,0.4,0.3,0.6c0.1,0.2,0.1,0.5,0.1,0.8s0,0.6-0.1,0.8c-0.1,0.2-0.2,0.4-0.4,0.6s-0.4,0.3-0.6,0.4
		c-0.2,0.1-0.5,0.1-0.8,0.1s-0.6,0-0.8-0.1S8.2,26.4,8,26.2c-0.2-0.2-0.3-0.4-0.3-0.6C7.6,25.3,7.6,25.1,7.6,24.8z M8.6,24.8
		c0,0.2,0,0.3,0,0.4s0.1,0.3,0.2,0.4c0.1,0.1,0.2,0.2,0.3,0.2c0.1,0.1,0.2,0.1,0.4,0.1c0.6,0,0.9-0.4,0.9-1.1c0-0.2,0-0.3,0-0.5
		c0-0.1-0.1-0.3-0.1-0.4c-0.1-0.1-0.2-0.2-0.3-0.2s-0.2-0.1-0.4-0.1c-0.3,0-0.5,0.1-0.6,0.3C8.6,24.1,8.6,24.4,8.6,24.8z"/>
	<path class="st0" d="M15.4,25.3c0,0.2,0,0.4,0,0.6s0,0.4,0.1,0.7h-0.7l-0.1-0.5h-0.1c-0.1,0.2-0.3,0.3-0.5,0.4s-0.4,0.2-0.7,0.2
		c-0.5,0-0.9-0.2-1.1-0.5c-0.3-0.3-0.4-0.8-0.4-1.4c0-0.3,0-0.6,0.1-0.8c0.1-0.2,0.2-0.5,0.3-0.6c0.2-0.2,0.3-0.3,0.6-0.4
		c0.2-0.1,0.5-0.1,0.8-0.1c0.2,0,0.3,0,0.4,0s0.2,0.1,0.4,0.1v-1.3h1v3.6C15.5,25.3,15.4,25.3,15.4,25.3z M13.7,25.9
		c0.2,0,0.4-0.1,0.5-0.2s0.2-0.2,0.3-0.4v-1.5c-0.1-0.1-0.2-0.1-0.3-0.1s-0.2,0-0.4,0c-0.3,0-0.5,0.1-0.7,0.3
		c-0.2,0.2-0.2,0.5-0.2,0.9c0,0.3,0.1,0.6,0.2,0.7C13.2,25.8,13.4,25.9,13.7,25.9z"/>
	<path class="st0" d="M16.3,24.8c0-0.6,0.2-1.1,0.5-1.4s0.8-0.5,1.4-0.5c0.3,0,0.6,0,0.8,0.1s0.4,0.2,0.6,0.4
		c0.2,0.2,0.3,0.4,0.3,0.6c0.1,0.2,0.1,0.5,0.1,0.8s0,0.6-0.1,0.8c-0.1,0.2-0.2,0.4-0.4,0.6s-0.4,0.3-0.6,0.4
		c-0.2,0.1-0.5,0.1-0.8,0.1s-0.6,0-0.8-0.1s-0.4-0.2-0.6-0.4c-0.2-0.2-0.3-0.4-0.3-0.6C16.3,25.3,16.3,25.1,16.3,24.8z M17.3,24.8
		c0,0.2,0,0.3,0,0.4s0.1,0.3,0.2,0.4c0.1,0.1,0.2,0.2,0.3,0.2c0.1,0.1,0.2,0.1,0.4,0.1c0.6,0,0.9-0.4,0.9-1.1c0-0.2,0-0.3,0-0.5
		c0-0.1-0.1-0.3-0.1-0.4c-0.1-0.1-0.2-0.2-0.3-0.2c-0.1-0.1-0.2-0.1-0.4-0.1c-0.3,0-0.5,0.1-0.6,0.3C17.4,24.1,17.3,24.4,17.3,24.8z
		"/>
	<path class="st0" d="M20.8,25.7c0.1,0,0.1,0.1,0.2,0.1c0.1,0,0.2,0.1,0.3,0.1s0.2,0.1,0.3,0.1s0.2,0,0.3,0c0.2,0,0.3,0,0.4-0.1
		c0.1-0.1,0.1-0.1,0.1-0.3c0-0.1-0.1-0.2-0.2-0.2c-0.1-0.1-0.3-0.1-0.4-0.2c-0.1,0-0.3-0.1-0.4-0.1C21.3,25,21.1,25,21,24.9
		c-0.1-0.1-0.2-0.2-0.3-0.3c-0.1-0.1-0.1-0.3-0.1-0.5c0-0.4,0.1-0.7,0.3-0.8c0.2-0.2,0.6-0.3,1-0.3c0.3,0,0.5,0,0.8,0.1
		c0.2,0,0.4,0.1,0.6,0.2L23.1,24c-0.1,0-0.3-0.1-0.5-0.1s-0.4-0.1-0.6-0.1c-0.2,0-0.3,0-0.4,0.1c-0.1,0-0.1,0.1-0.1,0.3
		c0,0.1,0.1,0.2,0.2,0.2c0.1,0.1,0.3,0.1,0.5,0.2c0.1,0,0.3,0.1,0.4,0.1c0.1,0,0.3,0.1,0.4,0.2c0.1,0.1,0.2,0.2,0.3,0.3
		c0.1,0.1,0.1,0.3,0.1,0.5c0,0.4-0.1,0.7-0.4,0.9c-0.3,0.2-0.6,0.3-1.1,0.3c-0.3,0-0.5,0-0.8-0.1c-0.2,0-0.4-0.1-0.6-0.2L20.8,25.7z
		"/>
	<path class="st0" d="M28.9,26.4c-0.2,0.1-0.3,0.2-0.6,0.2c-0.2,0.1-0.5,0.1-0.7,0.1c-0.3,0-0.6,0-0.8-0.1c-0.2-0.1-0.4-0.2-0.5-0.4
		c-0.1-0.2-0.2-0.4-0.3-0.6c-0.1-0.2-0.1-0.5-0.1-0.8c0-0.6,0.2-1.1,0.5-1.4s0.7-0.5,1.3-0.5c0.3,0,0.5,0,0.7,0.1
		c0.2,0,0.3,0.1,0.5,0.2L28.7,24c-0.1-0.1-0.2-0.1-0.4-0.1c-0.1,0-0.3,0-0.4,0c-0.3,0-0.5,0.1-0.7,0.3C27,24.4,27,24.6,27,25
		c0,0.1,0,0.3,0.1,0.4c0,0.1,0.1,0.2,0.2,0.3c0.1,0.1,0.2,0.2,0.3,0.2C27.7,26,27.9,26,28,26c0.2,0,0.4,0,0.5-0.1
		c0.1,0,0.2-0.1,0.3-0.1L28.9,26.4z"/>
	<path class="st0" d="M29.3,24.8c0-0.6,0.2-1.1,0.5-1.4s0.8-0.5,1.4-0.5c0.3,0,0.6,0,0.8,0.1c0.2,0.1,0.4,0.2,0.6,0.4
		c0.2,0.2,0.3,0.4,0.3,0.6c0.1,0.2,0.1,0.5,0.1,0.8s0,0.6-0.1,0.8c-0.1,0.2-0.2,0.4-0.4,0.6c-0.2,0.2-0.4,0.3-0.6,0.4
		c-0.2,0.1-0.5,0.1-0.8,0.1s-0.6,0-0.8-0.1c-0.2-0.1-0.4-0.2-0.6-0.4c-0.2-0.2-0.3-0.4-0.3-0.6C29.3,25.3,29.3,25.1,29.3,24.8z
		 M30.3,24.8c0,0.2,0,0.3,0,0.4s0.1,0.3,0.2,0.4s0.2,0.2,0.3,0.2c0.1,0.1,0.2,0.1,0.4,0.1c0.6,0,0.9-0.4,0.9-1.1c0-0.2,0-0.3,0-0.5
		c0-0.1-0.1-0.3-0.1-0.4c-0.1-0.1-0.2-0.2-0.3-0.2s-0.2-0.1-0.4-0.1c-0.3,0-0.5,0.1-0.6,0.3C30.4,24.1,30.3,24.4,30.3,24.8z"/>
	<path class="st0" d="M36.3,26.6v-2c0-0.3,0-0.5-0.1-0.7c-0.1-0.1-0.3-0.2-0.5-0.2s-0.4,0.1-0.5,0.2s-0.2,0.3-0.3,0.4
		c0,0.4,0,0.8,0,1.2c0,0.4,0,0.8,0,1.2h-1V23h0.8l0.1,0.5l0,0c0.1-0.2,0.3-0.3,0.5-0.4s0.5-0.2,0.8-0.2c0.2,0,0.4,0,0.5,0.1
		c0.2,0,0.3,0.1,0.4,0.3c0.1,0.1,0.2,0.3,0.2,0.5c0.1,0.2,0.1,0.5,0.1,0.8v2.2h-1V26.6z"/>
	<path class="st0" d="M41.4,26.3c-0.2,0.1-0.4,0.2-0.6,0.3s-0.6,0.1-0.9,0.1c-0.6,0-1.1-0.2-1.4-0.5s-0.4-0.8-0.4-1.4
		s0.2-1.1,0.5-1.5s0.8-0.5,1.4-0.5c0.2,0,0.4,0,0.6,0.1c0.2,0,0.4,0.1,0.5,0.2s0.3,0.3,0.4,0.5s0.1,0.4,0.1,0.7c0,0.1,0,0.2,0,0.3
		c0,0.1,0,0.2-0.1,0.4H39c0,0.3,0.1,0.6,0.3,0.7c0.2,0.2,0.4,0.2,0.8,0.2c0.2,0,0.4,0,0.6-0.1s0.3-0.1,0.4-0.2L41.4,26.3z M40,23.6
		c-0.3,0-0.5,0.1-0.6,0.2c-0.1,0.2-0.2,0.4-0.2,0.6h1.6c0-0.3,0-0.5-0.1-0.6C40.4,23.7,40.2,23.6,40,23.6z"/>
	<path class="st0" d="M45.2,26.4c-0.2,0.1-0.3,0.2-0.6,0.2c-0.2,0.1-0.5,0.1-0.7,0.1c-0.3,0-0.6,0-0.8-0.1c-0.2-0.1-0.4-0.2-0.5-0.4
		c-0.1-0.2-0.2-0.4-0.3-0.6c-0.1-0.2-0.1-0.5-0.1-0.8c0-0.6,0.2-1.1,0.5-1.4s0.7-0.5,1.3-0.5c0.3,0,0.5,0,0.7,0.1
		c0.2,0,0.3,0.1,0.5,0.2L45,24c-0.1-0.1-0.2-0.1-0.4-0.1c-0.1,0-0.3,0-0.4,0c-0.3,0-0.5,0.1-0.7,0.3c-0.2,0.2-0.2,0.4-0.2,0.8
		c0,0.1,0,0.3,0.1,0.4c0,0.1,0.1,0.2,0.2,0.3c0.1,0.1,0.2,0.2,0.3,0.2C44,26,44.2,26,44.3,26c0.2,0,0.4,0,0.5-0.1
		c0.1,0,0.2-0.1,0.3-0.1L45.2,26.4z"/>
	<path class="st0" d="M45.5,22.9h0.6v-0.5l1-0.3v0.8h1v0.8h-1V25c0,0.3,0,0.5,0.1,0.6s0.2,0.2,0.3,0.2c0.1,0,0.2,0,0.3,0
		c0.1,0,0.2,0,0.2-0.1l0.2,0.7c-0.1,0.1-0.3,0.1-0.5,0.2c-0.2,0-0.4,0.1-0.6,0.1c-0.4,0-0.6-0.1-0.8-0.3c-0.2-0.2-0.3-0.5-0.3-0.9
		v-1.8h-0.6v-0.8C45.4,22.9,45.5,22.9,45.5,22.9z"/>
	<path class="st0" d="M48.7,23.2c0.2-0.1,0.5-0.2,0.8-0.2c0.3-0.1,0.6-0.1,1-0.1c0.3,0,0.5,0,0.6,0.1c0.2,0.1,0.3,0.1,0.4,0.3
		c0.1,0.1,0.2,0.3,0.2,0.4c0,0.2,0.1,0.3,0.1,0.5s0,0.5,0,0.7s0,0.5,0,0.7s0,0.4,0,0.5c0,0.2,0.1,0.3,0.1,0.5h-0.8l-0.2-0.5h-0.1
		c-0.1,0.2-0.3,0.3-0.5,0.4s-0.4,0.2-0.7,0.2c-0.2,0-0.3,0-0.5-0.1c-0.1-0.1-0.3-0.1-0.4-0.2s-0.2-0.2-0.2-0.3
		c-0.1-0.1-0.1-0.3-0.1-0.4c0-0.4,0.1-0.7,0.4-0.9c0.3-0.2,0.7-0.3,1.3-0.3c0.1,0,0.3,0,0.4,0s0.2,0,0.3,0c0-0.1,0-0.2,0-0.3
		c0-0.2,0-0.3-0.1-0.4s-0.3-0.1-0.5-0.1s-0.4,0-0.7,0.1c-0.2,0.1-0.4,0.1-0.6,0.2L48.7,23.2z M50,25.9c0.2,0,0.4-0.1,0.5-0.2
		s0.2-0.2,0.3-0.3V25h-0.1c0,0-0.1,0-0.2,0s-0.1,0-0.2,0s-0.1,0-0.2,0c-0.3,0-0.4,0-0.6,0.1c-0.1,0.1-0.2,0.2-0.2,0.3
		c0,0.2,0,0.3,0.1,0.4C49.7,25.8,49.8,25.9,50,25.9z"/>
	<path class="st0" d="M56.2,25.3c0,0.2,0,0.4,0,0.6s0,0.4,0.1,0.7h-0.7l-0.1-0.5h-0.1c-0.1,0.2-0.3,0.3-0.5,0.4s-0.4,0.2-0.7,0.2
		c-0.5,0-0.9-0.2-1.1-0.5c-0.3-0.3-0.4-0.8-0.4-1.4c0-0.3,0-0.6,0.1-0.8c0.1-0.2,0.2-0.5,0.3-0.6c0.2-0.2,0.3-0.3,0.6-0.4
		c0.2-0.1,0.5-0.1,0.8-0.1c0.2,0,0.3,0,0.4,0s0.2,0.1,0.4,0.1v-1.3h1v3.6C56.3,25.3,56.2,25.3,56.2,25.3z M54.4,25.9
		c0.2,0,0.4-0.1,0.5-0.2s0.2-0.2,0.3-0.4v-1.5c-0.1-0.1-0.2-0.1-0.3-0.1c-0.1,0-0.2,0-0.4,0c-0.3,0-0.5,0.1-0.7,0.3
		c-0.2,0.2-0.2,0.5-0.2,0.9c0,0.3,0.1,0.6,0.2,0.7C53.9,25.8,54.1,25.9,54.4,25.9z"/>
	<path class="st0" d="M57,24.8c0-0.6,0.2-1.1,0.5-1.4s0.8-0.5,1.4-0.5c0.3,0,0.6,0,0.8,0.1s0.4,0.2,0.6,0.4c0.2,0.2,0.3,0.4,0.3,0.6
		c0.1,0.2,0.1,0.5,0.1,0.8s0,0.6-0.1,0.8c-0.1,0.2-0.2,0.4-0.4,0.6c-0.2,0.2-0.4,0.3-0.6,0.4s-0.5,0.1-0.8,0.1s-0.6,0-0.8-0.1
		c-0.2-0.1-0.4-0.2-0.6-0.4c-0.2-0.2-0.3-0.4-0.3-0.6C57.1,25.3,57,25.1,57,24.8z M58,24.8c0,0.2,0,0.3,0,0.4s0.1,0.3,0.2,0.4
		s0.2,0.2,0.3,0.2c0.1,0.1,0.2,0.1,0.4,0.1c0.6,0,0.9-0.4,0.9-1.1c0-0.2,0-0.3,0-0.5c0-0.1-0.1-0.3-0.1-0.4
		c-0.1-0.1-0.2-0.2-0.3-0.2c-0.1-0.1-0.2-0.1-0.4-0.1c-0.3,0-0.5,0.1-0.6,0.3C58.1,24.1,58,24.4,58,24.8z"/>
	<path class="st0" d="M61.5,25.7c0.1,0,0.1,0.1,0.2,0.1s0.2,0.1,0.3,0.1c0.1,0,0.2,0.1,0.3,0.1c0.1,0,0.2,0,0.3,0
		c0.2,0,0.3,0,0.4-0.1s0.1-0.1,0.1-0.3c0-0.1-0.1-0.2-0.2-0.2c-0.1-0.1-0.3-0.1-0.4-0.2c-0.1,0-0.3-0.1-0.4-0.1
		C62,25,61.8,25,61.7,24.9s-0.2-0.2-0.3-0.3c-0.1-0.1-0.1-0.3-0.1-0.5c0-0.4,0.1-0.7,0.3-0.8c0.2-0.2,0.6-0.3,1-0.3
		c0.3,0,0.5,0,0.8,0.1c0.2,0,0.4,0.1,0.6,0.2L63.8,24c-0.1,0-0.3-0.1-0.5-0.1s-0.4-0.1-0.6-0.1s-0.3,0-0.4,0.1
		c-0.1,0-0.1,0.1-0.1,0.3c0,0.1,0.1,0.2,0.2,0.2c0.1,0.1,0.3,0.1,0.5,0.2c0.1,0,0.3,0.1,0.4,0.1s0.3,0.1,0.4,0.2s0.2,0.2,0.3,0.3
		c0.1,0.1,0.1,0.3,0.1,0.5c0,0.4-0.1,0.7-0.4,0.9c-0.3,0.2-0.6,0.3-1.1,0.3c-0.3,0-0.5,0-0.8-0.1s-0.4-0.1-0.6-0.2L61.5,25.7z"/>
</g>
</svg>
